# xmcd
# Track frame offsets:
# 150
# 13779
# 27006
# 38074
# 49766
# 64411
# 76079
# 92977
# 106339
# 121067
# 134518
# 146533
# 162280
# 178664
# 193828
# 209739
# 221500
# 235933
#
# Disc length: 3348 seconds
# Revision: 0
# Processed by: cddbd v1.4PL0 Copyright (c) Steve Scherf et al.
# Submitted via: VisiTrax 2.9.5.181 - For more info visit www.synapsa.com
#
DISCID=020d1212
DTITLE=King, Ben E. - Memories of... Ben E. King - The Temptations - Cd 1 Be
DTITLE=n E. King
DYEAR=2000
DGENRE=Soul
TTITLE0=Stand By Me
TTITLE1=Spanish Harlem
TTITLE2=I Who Have Nothing
TTITLE3=Goodnight My Love
TTITLE4=It's All Over
TTITLE5=All Of Your Tomorrows
TTITLE6=Into The Mystic
TTITLE7=Love Is
TTITLE8=Only You Know And I Know
TTITLE9=Poison In My Mind
TTITLE10=She Does It Right With Nothing But Her Loving Ways
TTITLE11=Supernatural Thing
TTITLE12=Take Me To The Pilot
TTITLE13=The Beginning Of It All
TTITLE14=Travelin' Woman
TTITLE15=White Moon
TTITLE16=Love Is going To Get You
TTITLE17=I Guess It's Goodbye
EXTD=Raccolta due cd: Ben E. King e Temptations
EXTT0=
EXTT1=
EXTT2=
EXTT3=
EXTT4=
EXTT5=
EXTT6=
EXTT7=
EXTT8=
EXTT9=
EXTT10=
EXTT11=
EXTT12=
EXTT13=
EXTT14=
EXTT15=
EXTT16=
EXTT17=
PLAYORDER=
